M48
; DRILL file {KiCad (5.1.4)-1} date 14.01.2020 12:55:10
; FORMAT={-:-/ absolute / metric / decimal}
; #@! TF.CreationDate,2020-01-14T12:55:10+01:00
; #@! TF.GenerationSoftware,Kicad,Pcbnew,(5.1.4)-1
FMAT,2
METRIC
T1C0.600
T2C0.800
T3C0.920
T4C1.000
T5C1.400
T6C2.330
%
G90
G05
T1
X87.058Y-41.91
X126.682Y-32.893
T2
X48.895Y-55.245
X51.054Y-132.207
X51.435Y-61.595
X54.356Y-34.036
X55.562Y-86.804
X55.626Y-112.268
X55.677Y-39.764
X55.689Y-137.731
X55.753Y-141.922
X55.753Y-153.416
X59.118Y-37.846
X59.118Y-45.529
X62.23Y-55.88
X62.547Y-33.972
X64.135Y-59.055
X65.532Y-34.036
X66.167Y-62.23
X66.421Y-44.069
X66.548Y-52.451
X66.611Y-48.895
X68.072Y-84.328
X68.199Y-64.897
X68.961Y-55.88
X69.723Y-35.496
X70.612Y-62.23
X71.755Y-55.88
X73.406Y-53.848
X73.66Y-38.417
X73.66Y-41.465
X74.739Y-32.194
X79.566Y-53.784
X84.645Y-53.911
X87.122Y-29.845
X89.662Y-29.845
X91.059Y-135.001
X91.059Y-170.688
X92.075Y-29.845
X92.202Y-97.028
X93.726Y-94.488
X93.726Y-132.334
X93.726Y-170.561
X94.932Y-55.816
X94.996Y-59.817
X95.567Y-32.512
X96.203Y-37.91
X96.329Y-45.847
X96.393Y-43.053
X97.599Y-30.67
X99.251Y-32.182
X100.012Y-101.409
X100.584Y-33.591
X100.584Y-44.196
X100.584Y-47.777
X102.108Y-62.738
X102.171Y-34.861
X103.441Y-38.608
X105.791Y-56.388
X105.816Y-61.379
X108.521Y-47.752
X110.363Y-45.847
X110.426Y-43.307
X121.475Y-41.402
X121.539Y-50.165
X121.602Y-44.767
X121.666Y-47.752
X122.809Y-88.075
X128.207Y-74.168
X133.858Y-57.912
X133.858Y-164.338
X136.017Y-166.751
X136.398Y-57.912
X137.605Y-38.798
X138.079Y-30.14
X138.112Y-31.877
X139.129Y-40.195
X148.59Y-57.785
X148.59Y-135.89
X152.781Y-129.222
X152.908Y-104.14
X152.908Y-108.077
X152.908Y-161.036
X152.971Y-131.064
X152.971Y-155.892
X153.01Y-55.118
X153.01Y-58.877
X96.393Y-65.278
X96.393Y-67.818
X96.393Y-70.358
X96.393Y-72.898
X96.393Y-75.438
X96.393Y-77.978
X96.393Y-80.518
X96.393Y-83.058
X96.393Y-85.598
X96.393Y-88.138
X96.393Y-90.678
X96.393Y-93.218
X96.393Y-95.758
X96.393Y-98.298
X104.013Y-65.278
X104.013Y-67.818
X104.013Y-70.358
X104.013Y-72.898
X104.013Y-75.438
X104.013Y-77.978
X104.013Y-80.518
X104.013Y-83.058
X104.013Y-85.598
X104.013Y-88.138
X104.013Y-90.678
X104.013Y-93.218
X104.013Y-95.758
X104.013Y-98.298
X118.11Y-53.086
X118.11Y-55.526
X118.11Y-57.966
X96.139Y-143.891
X96.139Y-146.431
X96.139Y-148.971
X96.139Y-151.511
X96.139Y-154.051
X96.139Y-156.591
X96.139Y-159.131
X96.139Y-161.671
X96.139Y-164.211
X96.139Y-166.751
X96.139Y-169.291
X96.139Y-171.831
X96.139Y-174.371
X96.139Y-176.911
X103.759Y-143.891
X103.759Y-146.431
X103.759Y-148.971
X103.759Y-151.511
X103.759Y-154.051
X103.759Y-156.591
X103.759Y-159.131
X103.759Y-161.671
X103.759Y-164.211
X103.759Y-166.751
X103.759Y-169.291
X103.759Y-171.831
X103.759Y-174.371
X103.759Y-176.911
X69.406Y-44.005
X69.406Y-51.625
X71.945Y-44.005
X71.945Y-51.625
X74.486Y-44.005
X74.486Y-51.625
X77.025Y-44.005
X77.025Y-51.625
X79.566Y-44.005
X79.566Y-51.625
X82.105Y-44.005
X82.105Y-51.625
X84.645Y-44.005
X84.645Y-51.625
X87.185Y-44.005
X87.185Y-51.625
X89.725Y-44.005
X89.725Y-51.625
X92.265Y-44.005
X92.265Y-51.625
X97.79Y-51.752
X97.79Y-59.372
X100.33Y-51.752
X100.33Y-59.372
X102.87Y-51.752
X102.87Y-59.372
X76.962Y-32.194
X76.962Y-39.814
X79.502Y-32.194
X79.502Y-39.814
X82.042Y-32.194
X82.042Y-39.814
X84.582Y-32.194
X84.582Y-39.814
X87.122Y-32.194
X87.122Y-39.814
X89.662Y-32.194
X89.662Y-39.814
X92.202Y-32.194
X92.202Y-39.814
X74.422Y-56.134
X74.422Y-63.754
X76.962Y-56.134
X76.962Y-63.754
X79.502Y-56.134
X79.502Y-63.754
X82.042Y-56.134
X82.042Y-63.754
X84.582Y-56.134
X84.582Y-63.754
X87.122Y-56.134
X87.122Y-63.754
X89.662Y-56.134
X89.662Y-63.754
X92.202Y-56.134
X92.202Y-63.754
X96.52Y-104.521
X96.52Y-107.061
X96.52Y-109.601
X96.52Y-112.141
X96.52Y-114.681
X96.52Y-117.221
X96.52Y-119.761
X96.52Y-122.301
X96.52Y-124.841
X96.52Y-127.381
X96.52Y-129.921
X96.52Y-132.461
X96.52Y-135.001
X96.52Y-137.541
X104.14Y-104.521
X104.14Y-107.061
X104.14Y-109.601
X104.14Y-112.141
X104.14Y-114.681
X104.14Y-117.221
X104.14Y-119.761
X104.14Y-122.301
X104.14Y-124.841
X104.14Y-127.381
X104.14Y-129.921
X104.14Y-132.461
X104.14Y-135.001
X104.14Y-137.541
X123.981Y-37.648
X123.981Y-40.188
X123.981Y-42.728
X123.981Y-45.268
X123.981Y-47.808
X123.981Y-50.348
X123.981Y-52.888
X123.981Y-55.428
X123.981Y-57.968
X123.981Y-60.508
X123.981Y-63.048
X123.981Y-65.588
X123.981Y-68.128
X123.981Y-70.668
X131.601Y-37.648
X131.601Y-40.188
X131.601Y-42.728
X131.601Y-45.268
X131.601Y-47.808
X131.601Y-50.348
X131.601Y-52.888
X131.601Y-55.428
X131.601Y-57.968
X131.601Y-60.508
X131.601Y-63.048
X131.601Y-65.588
X131.601Y-68.128
X131.601Y-70.668
T3
X115.356Y-169.926
X115.356Y-171.926
X117.856Y-169.926
X117.856Y-171.926
T4
X48.26Y-61.595
X48.26Y-64.135
X48.26Y-66.675
X48.26Y-69.215
X48.26Y-71.755
X48.26Y-74.295
X48.26Y-86.868
X48.26Y-89.408
X48.26Y-91.948
X48.26Y-94.488
X48.26Y-97.028
X48.26Y-99.568
X146.558Y-126.315
X147.828Y-124.115
X149.098Y-121.915
X150.368Y-119.715
X151.638Y-117.516
X152.908Y-115.316
X48.26Y-137.668
X48.26Y-140.208
X48.26Y-142.748
X48.26Y-145.288
X48.26Y-147.828
X48.26Y-150.368
X51.816Y-29.972
X54.356Y-29.972
X56.896Y-29.972
X59.436Y-29.972
X61.976Y-29.972
X64.516Y-29.972
X67.056Y-29.972
X69.596Y-29.972
X72.136Y-29.972
X146.685Y-50.754
X147.955Y-48.555
X149.225Y-46.355
X150.495Y-44.155
X151.765Y-41.956
X153.035Y-39.756
X48.26Y-36.195
X48.26Y-38.735
X48.26Y-41.275
X48.26Y-43.815
X48.26Y-46.355
X48.26Y-48.895
X108.585Y-36.83
X108.585Y-41.33
X115.085Y-36.83
X115.085Y-41.33
X146.558Y-177.115
X147.828Y-174.915
X149.098Y-172.715
X150.368Y-170.515
X151.638Y-168.316
X152.908Y-166.116
X72.252Y-33.802
X146.558Y-101.423
X147.828Y-99.223
X149.098Y-97.023
X150.368Y-94.823
X151.638Y-92.624
X152.908Y-90.424
X146.685Y-75.769
X147.955Y-73.569
X149.225Y-71.369
X150.495Y-69.169
X151.765Y-66.97
X153.035Y-64.77
X48.26Y-112.268
X48.26Y-114.808
X48.26Y-117.348
X48.26Y-119.888
X48.26Y-122.428
X48.26Y-124.968
X73.958Y-177.268
X76.498Y-177.268
X79.038Y-177.268
X81.578Y-177.268
X146.558Y-152.223
X147.828Y-150.023
X149.098Y-147.823
X150.368Y-145.623
X151.638Y-143.424
X152.908Y-141.224
X48.26Y-163.068
X48.26Y-165.608
X48.26Y-168.148
X48.26Y-170.688
X48.26Y-173.228
X48.26Y-175.768
X115.824Y-63.985
X115.824Y-70.485
X120.324Y-63.985
X120.324Y-70.485
T5
X118.618Y-37.465
X118.618Y-47.625
T6
X110.586Y-174.636
X122.626Y-174.636
T0
M30
