G04 #@! TF.GenerationSoftware,KiCad,Pcbnew,(5.1.4)-1*
G04 #@! TF.CreationDate,2020-01-14T12:55:27+01:00*
G04 #@! TF.ProjectId,MainPL,4d61696e-504c-42e6-9b69-6361645f7063,rev?*
G04 #@! TF.SameCoordinates,Original*
G04 #@! TF.FileFunction,Profile,NP*
%FSLAX46Y46*%
G04 Gerber Fmt 4.6, Leading zero omitted, Abs format (unit mm)*
G04 Created by KiCad (PCBNEW (5.1.4)-1) date 2020-01-14 12:55:27*
%MOMM*%
%LPD*%
G04 APERTURE LIST*
%ADD10C,0.050000*%
G04 APERTURE END LIST*
D10*
X159146666Y-159385000D02*
G75*
G03X159146666Y-159385000I-1666666J0D01*
G01*
X154980000Y-159385000D02*
X159980000Y-159385000D01*
X157480000Y-156885000D02*
X157480000Y-161885000D01*
X159146666Y-133985000D02*
G75*
G03X159146666Y-133985000I-1666666J0D01*
G01*
X154980000Y-133985000D02*
X159980000Y-133985000D01*
X157480000Y-131485000D02*
X157480000Y-136485000D01*
X159146666Y-108585000D02*
G75*
G03X159146666Y-108585000I-1666666J0D01*
G01*
X154980000Y-108585000D02*
X159980000Y-108585000D01*
X157480000Y-106085000D02*
X157480000Y-111085000D01*
X159146666Y-83185000D02*
G75*
G03X159146666Y-83185000I-1666666J0D01*
G01*
X154980000Y-83185000D02*
X159980000Y-83185000D01*
X157480000Y-80685000D02*
X157480000Y-85685000D01*
X159146666Y-57785000D02*
G75*
G03X159146666Y-57785000I-1666666J0D01*
G01*
X154980000Y-57785000D02*
X159980000Y-57785000D01*
X157480000Y-55285000D02*
X157480000Y-60285000D01*
X159146666Y-32385000D02*
G75*
G03X159146666Y-32385000I-1666666J0D01*
G01*
X154980000Y-32385000D02*
X159980000Y-32385000D01*
X157480000Y-29885000D02*
X157480000Y-34885000D01*
X46116666Y-156845000D02*
G75*
G03X46116666Y-156845000I-1666666J0D01*
G01*
X41950000Y-156845000D02*
X46950000Y-156845000D01*
X44450000Y-154345000D02*
X44450000Y-159345000D01*
X46116666Y-131445000D02*
G75*
G03X46116666Y-131445000I-1666666J0D01*
G01*
X41950000Y-131445000D02*
X46950000Y-131445000D01*
X44450000Y-128945000D02*
X44450000Y-133945000D01*
X46116666Y-106045000D02*
G75*
G03X46116666Y-106045000I-1666666J0D01*
G01*
X41950000Y-106045000D02*
X46950000Y-106045000D01*
X44450000Y-103545000D02*
X44450000Y-108545000D01*
X46116666Y-80645000D02*
G75*
G03X46116666Y-80645000I-1666666J0D01*
G01*
X41950000Y-80645000D02*
X46950000Y-80645000D01*
X44450000Y-78145000D02*
X44450000Y-83145000D01*
X46116666Y-29845000D02*
G75*
G03X46116666Y-29845000I-1666666J0D01*
G01*
X41950000Y-29845000D02*
X46950000Y-29845000D01*
X44450000Y-27345000D02*
X44450000Y-32345000D01*
X46116666Y-55245000D02*
G75*
G03X46116666Y-55245000I-1666666J0D01*
G01*
X41950000Y-55245000D02*
X46950000Y-55245000D01*
X44450000Y-52745000D02*
X44450000Y-57745000D01*
X157480000Y-26035000D02*
X156845000Y-26035000D01*
X157480000Y-181610000D02*
X157480000Y-26035000D01*
X44450000Y-181610000D02*
X45085000Y-181610000D01*
X44450000Y-26035000D02*
X44450000Y-181610000D01*
X157480000Y-181610000D02*
X45085000Y-181610000D01*
X44450000Y-26035000D02*
X156845000Y-26035000D01*
M02*
